# xmcd
#
# Track frame offsets:
#	150
#	13527
#	22720
#	34757
#	46849
#	60907
#	71504
#	81437
#	88878
#	99109
#	112417
#	125747
#	134160
#	141597
#
# Disc length: 2013 seconds
#
# Revision: 1
# Processed by: cddbd v1.5.2PL0 Copyright (c) Steve Scherf et al.
# Submitted via: audiograbber 1.83.01
#
DISCID=c307db0e
DTITLE=Pat Boone - I'll Be Home For Christmas
DYEAR=1900
DGENRE=Ballad
TTITLE0=White Christmas
TTITLE1=Jingle Bells
TTITLE2=Adeste Fideles (O Come All Ye Faithful)
TTITLE3=Got Rest Ye Merry Christmas
TTITLE4=O Little Town Of Betlehem
TTITLE5=Silver Bells
TTITLE6=Santa Claus Is Coming To Town
TTITLE7=Silent Night, Holy Night
TTITLE8=O Holy Night
TTITLE9=Hark! The Herald Angels Sing
TTITLE10=The First Noel
TTITLE11=I'll Be Home For Christmas
TTITLE12=Joy To The World
TTITLE13=It Came Upon A Midnight Clear
EXTD=
EXTT0=
EXTT1=
EXTT2=
EXTT3=
EXTT4=
EXTT5=
EXTT6=
EXTT7=
EXTT8=
EXTT9=
EXTT10=
EXTT11=
EXTT12=
EXTT13=
PLAYORDER=
